<svg width="32" height="32" viewBox="0 0 32 32" fill="none" xmlns="http://www.w3.org/2000/svg">
<path d="M14.1334 22.1333L23.5334 12.7333L21.6667 10.8666L14.1334 18.4L10.3334 14.6L8.46669 16.4666L14.1334 22.1333ZM16 29.3333C14.1556 29.3333 12.4222 28.9831 10.8 28.2826C9.1778 27.5822 7.76669 26.6324 6.56669 25.4333C5.36669 24.2342 4.41691 22.8231 3.71736 21.2C3.0178 19.5768 2.66758 17.8435 2.66669 16C2.6658 14.1564 3.01602 12.4231 3.71736 10.8C4.41869 9.17685 5.36847 7.76574 6.56669 6.56663C7.76491 5.36752 9.17602 4.41774 10.8 3.71729C12.424 3.01685 14.1574 2.66663 16 2.66663C17.8427 2.66663 19.576 3.01685 21.2 3.71729C22.824 4.41774 24.2351 5.36752 25.4334 6.56663C26.6316 7.76574 27.5818 9.17685 28.284 10.8C28.9862 12.4231 29.336 14.1564 29.3334 16C29.3307 17.8435 28.9805 19.5768 28.2827 21.2C27.5849 22.8231 26.6351 24.2342 25.4334 25.4333C24.2316 26.6324 22.8205 27.5826 21.2 28.284C19.5796 28.9853 17.8462 29.3351 16 29.3333Z" fill="#FFD89A"/>
</svg>
