<svg width="32" height="33" viewBox="0 0 32 33" fill="none" xmlns="http://www.w3.org/2000/svg">
<g clip-path="url(#clip0_79_6114)">
<path fill-rule="evenodd" clip-rule="evenodd" d="M16 32.1079C11.7565 32.1079 7.68687 30.4222 4.68629 27.4216C1.68571 24.421 0 20.3514 0 16.1079C0 11.8644 1.68571 7.79478 4.68629 4.7942C7.68687 1.79362 11.7565 0.10791 16 0.10791C20.2435 0.10791 24.3131 1.79362 27.3137 4.7942C30.3143 7.79478 32 11.8644 32 16.1079C32 20.3514 30.3143 24.421 27.3137 27.4216C24.3131 30.4222 20.2435 32.1079 16 32.1079ZM24.9749 12.9079L16 21.8828L7.02507 12.9079H24.9749Z" fill="#FFD89A"/>
</g>
<defs>
<clipPath id="clip0_79_6114">
<rect width="32" height="32" fill="white" transform="translate(0 0.10791)"/>
</clipPath>
</defs>
</svg>
