<svg width="81" height="120" viewBox="0 0 81 120" fill="none" xmlns="http://www.w3.org/2000/svg">
<mask id="path-1-inside-1_90_115" fill="white">
<path d="M77.6666 107.756L77.6549 108.061C77.148 114.442 60.7816 119.565 40.6666 119.565C20.5516 119.565 4.18528 114.442 3.67834 108.061L3.66663 107.756V35.427H77.6666V107.756Z"/>
</mask>
<path d="M77.6666 107.756L77.6549 108.061C77.148 114.442 60.7816 119.565 40.6666 119.565C20.5516 119.565 4.18528 114.442 3.67834 108.061L3.66663 107.756V35.427H77.6666V107.756Z" fill="#E7E7E7"/>
<path d="M77.6666 107.756L79.6651 107.833L79.6666 107.795V107.756H77.6666ZM77.6549 108.061L79.6486 108.219L79.6519 108.178L79.6534 108.138L77.6549 108.061ZM3.67834 108.061L1.67982 108.138L1.68139 108.178L1.68463 108.219L3.67834 108.061ZM3.66663 107.756H1.66663V107.795L1.6681 107.833L3.66663 107.756ZM3.66663 35.427V33.427H1.66663V35.427H3.66663ZM77.6666 35.427H79.6666V33.427H77.6666V35.427ZM77.6666 107.756L75.6681 107.679L75.6564 107.984L77.6549 108.061L79.6534 108.138L79.6651 107.833L77.6666 107.756ZM77.6549 108.061L75.6612 107.902C75.6028 108.637 75.0463 109.69 73.3243 110.925C71.6437 112.131 69.1436 113.291 65.9187 114.296C59.4882 116.3 50.5772 117.565 40.6666 117.565V119.565V121.565C50.8711 121.565 60.2007 120.268 67.1088 118.115C70.5533 117.042 73.4971 115.724 75.6562 114.175C77.7741 112.656 79.4535 110.675 79.6486 108.219L77.6549 108.061ZM40.6666 119.565V117.565C30.7561 117.565 21.845 116.3 15.4145 114.296C12.1897 113.291 9.6896 112.131 8.00892 110.925C6.28691 109.69 5.73043 108.637 5.67206 107.902L3.67834 108.061L1.68463 108.219C1.87973 110.675 3.55914 112.656 5.677 114.175C7.83618 115.724 10.7799 117.042 14.2244 118.115C21.1326 120.268 30.4622 121.565 40.6666 121.565V119.565ZM3.67834 108.061L5.67687 107.984L5.66515 107.679L3.66663 107.756L1.6681 107.833L1.67982 108.138L3.67834 108.061ZM3.66663 107.756H5.66663V35.427H3.66663H1.66663V107.756H3.66663ZM3.66663 35.427V37.427H77.6666V35.427V33.427H3.66663V35.427ZM77.6666 35.427H75.6666V107.756H77.6666H79.6666V35.427H77.6666Z" fill="#333333" mask="url(#path-1-inside-1_90_115)"/>
<path d="M40.6666 24.3628C50.8089 24.3628 59.9502 25.692 66.5221 27.814C69.8136 28.8768 72.4048 30.1208 74.152 31.4546C75.9142 32.7999 76.6666 34.1122 76.6666 35.3101C76.6665 36.5079 75.9141 37.8204 74.152 39.1656C72.4048 40.4992 69.8134 41.7434 66.5221 42.8062C59.9502 44.9281 50.8088 46.2564 40.6666 46.2564C30.5245 46.2564 21.383 44.9281 14.8112 42.8062C11.5198 41.7434 8.92843 40.4992 7.18127 39.1656C5.41919 37.8204 4.66678 36.5079 4.66663 35.3101C4.66663 34.1122 5.41902 32.7999 7.18127 31.4546C8.92844 30.1208 11.5196 28.8768 14.8112 27.814C21.383 25.692 30.5244 24.3628 40.6666 24.3628Z" fill="#E7E7E7" stroke="#333333" stroke-width="2"/>
<path d="M40.6669 21.177C49.6365 21.177 57.7177 22.2983 63.5233 24.0872C66.4322 24.9835 68.7139 26.0306 70.246 27.1467C71.7998 28.2787 72.4081 29.3455 72.4081 30.2659C72.4079 31.1861 71.7995 32.2523 70.246 33.384C68.7139 34.5002 66.4323 35.5473 63.5233 36.4436C57.7177 38.2324 49.6365 39.3537 40.6669 39.3538C31.697 39.3538 23.6151 38.2325 17.8094 36.4436C14.9007 35.5473 12.6198 34.5001 11.0878 33.384C9.53419 32.2523 8.92582 31.1861 8.92566 30.2659C8.92566 29.3455 9.53398 28.2787 11.0878 27.1467C12.6198 26.0307 14.9008 24.9834 17.8094 24.0872C23.6151 22.2983 31.697 21.177 40.6669 21.177Z" fill="#E7E7E7" stroke="#333333" stroke-width="2"/>
<mask id="path-5-inside-2_90_115" fill="white">
<path d="M77.6666 23.6179L77.6549 23.9226C77.1482 30.3035 60.7818 35.4265 40.6666 35.4265C20.5515 35.4265 4.18503 30.3035 3.67834 23.9226L3.66663 23.6179V11.8093H77.6666V23.6179Z"/>
</mask>
<path d="M77.6666 23.6179L77.6549 23.9226C77.1482 30.3035 60.7818 35.4265 40.6666 35.4265C20.5515 35.4265 4.18503 30.3035 3.67834 23.9226L3.66663 23.6179V11.8093H77.6666V23.6179Z" fill="#E7E7E7"/>
<path d="M77.6666 23.6179L79.6651 23.6948L79.6666 23.6564V23.6179H77.6666ZM77.6549 23.9226L79.6486 24.0809L79.6519 24.0402L79.6534 23.9995L77.6549 23.9226ZM3.67834 23.9226L1.67982 23.9995L1.68139 24.0402L1.68462 24.0809L3.67834 23.9226ZM3.66663 23.6179H1.66663V23.6564L1.6681 23.6948L3.66663 23.6179ZM3.66663 11.8093V9.80933H1.66663V11.8093H3.66663ZM77.6666 11.8093H79.6666V9.80933H77.6666V11.8093ZM77.6666 23.6179L75.6681 23.5411L75.6564 23.8457L77.6549 23.9226L79.6534 23.9995L79.6651 23.6948L77.6666 23.6179ZM77.6549 23.9226L75.6612 23.7643C75.6028 24.4989 75.0464 25.5515 73.3245 26.7871C71.6438 27.993 69.1437 29.153 65.9189 30.158C59.4884 32.1619 50.5773 33.4265 40.6666 33.4265V35.4265V37.4265C50.8711 37.4265 60.2008 36.1296 67.109 33.9768C70.5535 32.9034 73.4972 31.5863 75.6564 30.037C77.7742 28.5174 79.4536 26.5368 79.6486 24.0809L77.6549 23.9226ZM40.6666 35.4265V33.4265C30.756 33.4265 21.8449 32.1619 15.4143 30.158C12.1895 29.153 9.68945 27.993 8.0088 26.7871C6.28683 25.5515 5.7304 24.4989 5.67207 23.7643L3.67834 23.9226L1.68462 24.0809C1.87963 26.5368 3.55902 28.5174 5.67686 30.037C7.83603 31.5863 10.7798 32.9034 14.2243 33.9768C21.1324 36.1296 30.4621 37.4265 40.6666 37.4265V35.4265ZM3.67834 23.9226L5.67687 23.8457L5.66515 23.5411L3.66663 23.6179L1.6681 23.6948L1.67982 23.9995L3.67834 23.9226ZM3.66663 23.6179H5.66663V11.8093H3.66663H1.66663V23.6179H3.66663ZM3.66663 11.8093V13.8093H77.6666V11.8093V9.80933H3.66663V11.8093ZM77.6666 11.8093H75.6666V23.6179H77.6666H79.6666V11.8093H77.6666Z" fill="#333333" mask="url(#path-5-inside-2_90_115)"/>
<path d="M40.6666 1C50.8107 1 59.9549 2.29948 66.5289 4.375C69.8215 5.41454 72.4135 6.63138 74.1608 7.93555C75.9262 9.25334 76.6666 10.5304 76.6666 11.6816C76.6665 12.8328 75.926 14.1091 74.1608 15.4268C72.4135 16.731 69.8217 17.9487 66.5289 18.9883C59.9549 21.0638 50.8107 22.3633 40.6666 22.3633C30.5225 22.3633 21.3784 21.0638 14.8043 18.9883C11.5116 17.9487 8.91978 16.731 7.17249 15.4268C5.4072 14.1091 4.66672 12.8328 4.66663 11.6816C4.66663 10.5304 5.40703 9.25334 7.17249 7.93555C8.91976 6.63138 11.5117 5.41454 14.8043 4.375C21.3784 2.29948 30.5225 1 40.6666 1Z" fill="#E7E7E7" stroke="#333333" stroke-width="2"/>
<path d="M26.5909 66.3717V57.4896H32.43V58.4963H27.7153V61.3381H31.8039V62.3448H27.7153V66.3717H26.5909Z" fill="#333333"/>
<path d="M33.496 66.3717V60.0892H34.5693V66.3717H33.496ZM33.3938 58.955V57.4896H34.6715V58.955H33.3938Z" fill="#333333"/>
<path d="M37.4388 66.4736C37.0555 66.4736 36.7446 66.3547 36.5061 66.1168C36.2676 65.8789 36.1483 65.5009 36.1483 64.9827V57.4896H37.2216V64.7788C37.2216 65.0251 37.2727 65.2035 37.3749 65.314C37.4771 65.4244 37.6134 65.4797 37.7838 65.4797C37.8604 65.4797 37.9456 65.4712 38.0393 65.4542C38.133 65.4372 38.231 65.4117 38.3332 65.3777V66.2952C38.1884 66.3547 38.0351 66.3972 37.8732 66.4227C37.7114 66.4566 37.5666 66.4736 37.4388 66.4736Z" fill="#333333"/>
<path d="M40.603 66.4736C40.2197 66.4736 39.9088 66.3547 39.6703 66.1168C39.4318 65.8789 39.3125 65.5009 39.3125 64.9827V57.4896H40.3858V64.7788C40.3858 65.0251 40.4369 65.2035 40.5391 65.314C40.6413 65.4244 40.7776 65.4797 40.948 65.4797C41.0246 65.4797 41.1098 65.4712 41.2035 65.4542C41.2972 65.4372 41.3952 65.4117 41.4974 65.3777V66.2952C41.3526 66.3547 41.1993 66.3972 41.0374 66.4227C40.8756 66.4566 40.7308 66.4736 40.603 66.4736Z" fill="#333333"/>
<path d="M45.7604 66.5246C44.7042 66.5246 43.895 66.24 43.3328 65.6708C42.7791 65.1016 42.5023 64.2648 42.5023 63.1604V57.4896H43.6266V63.0329C43.6266 63.5681 43.6948 64.0184 43.8311 64.3837C43.9759 64.749 44.2059 65.0251 44.521 65.212C44.8362 65.3989 45.2493 65.4924 45.7604 65.4924C46.2715 65.4924 46.6846 65.3989 46.9998 65.212C47.3235 65.0166 47.5577 64.7363 47.7025 64.371C47.8473 64.0057 47.9197 63.5554 47.9197 63.0202V57.4896H49.0313V63.0966C49.0313 64.2181 48.7502 65.0719 48.188 65.6581C47.6344 66.2358 46.8251 66.5246 45.7604 66.5246Z" fill="#333333"/>
<path d="M52.7526 66.4736C52.3267 66.4736 51.9434 66.4099 51.6027 66.2825C51.262 66.1551 50.9681 65.9851 50.7211 65.7727C50.4826 65.5604 50.2909 65.3352 50.1461 65.0974L50.8999 64.4602C51.0618 64.783 51.3003 65.0506 51.6155 65.263C51.9391 65.4669 52.3224 65.5689 52.7654 65.5689C53.1657 65.5689 53.4851 65.4839 53.7237 65.314C53.9622 65.1441 54.0814 64.9147 54.0814 64.6258C54.0814 64.388 54.009 64.2011 53.8642 64.0651C53.7194 63.9292 53.5277 63.8188 53.2892 63.7338C53.0507 63.6489 52.7909 63.5724 52.5098 63.5044C52.2713 63.445 52.0286 63.3727 51.7816 63.2878C51.5431 63.2028 51.3258 63.0966 51.1299 62.9692C50.934 62.8418 50.7764 62.6761 50.6572 62.4722C50.5379 62.2683 50.4783 62.0177 50.4783 61.7204C50.4783 61.2021 50.6785 60.7858 51.0788 60.4715C51.4877 60.1487 52.0201 59.9873 52.6759 59.9873C53.1529 59.9873 53.5874 60.0892 53.9792 60.2931C54.3795 60.4885 54.6904 60.7858 54.9119 61.1851L54.222 61.6949C54.0516 61.3975 53.8259 61.1851 53.5448 61.0577C53.2722 60.9218 52.9698 60.8538 52.6376 60.8538C52.3054 60.8538 52.0286 60.9218 51.8071 61.0577C51.5856 61.1936 51.4749 61.3805 51.4749 61.6184C51.4749 61.7968 51.526 61.9412 51.6282 62.0517C51.7304 62.1621 51.8795 62.2556 52.0754 62.332C52.2799 62.4085 52.5269 62.4807 52.8165 62.5487C53.0805 62.6081 53.3489 62.6804 53.6214 62.7653C53.894 62.8503 54.1453 62.9607 54.3753 63.0966C54.6053 63.2326 54.7884 63.4152 54.9247 63.6446C55.0695 63.8655 55.1419 64.1543 55.1419 64.5112C55.1419 64.902 55.0439 65.246 54.848 65.5434C54.6521 65.8407 54.3753 66.0701 54.0175 66.2315C53.6598 66.3929 53.2381 66.4736 52.7526 66.4736Z" fill="#333333"/>
<path d="M8.42913 95.012C11.5862 98.3086 22.4776 103.718 37.5262 97.8675C45.6078 94.7257 60.2085 89.822 70.6111 100.075" stroke="#333333" stroke-width="2" stroke-linecap="round"/>
<path d="M4.6666 82.5C9.11424 79.0604 21.7873 75.2796 40.8193 87.146C57.822 97.7472 73.486 88.7991 76.6666 87.5" stroke="#333333" stroke-width="2" stroke-linecap="round"/>
<path d="M35.6092 84.1593C41.0176 79.6502 59.3645 72.208 76.6666 81.5" stroke="#333333" stroke-width="2" stroke-linecap="round"/>
</svg>
