<svg width="32" height="32" viewBox="0 0 32 32" fill="none" xmlns="http://www.w3.org/2000/svg">
<path d="M27.9521 30.1539L18.0444 20.2462C17.2581 20.8753 16.3538 21.3733 15.3316 21.7402C14.3094 22.1072 13.2216 22.2906 12.0684 22.2906C9.21137 22.2906 6.79369 21.3009 4.81529 19.3215C2.8369 17.342 1.84718 14.9243 1.84613 12.0684C1.84508 9.21248 2.8348 6.7948 4.81529 4.81535C6.79578 2.83591 9.21347 1.84619 12.0684 1.84619C14.9232 1.84619 17.3414 2.83591 19.323 4.81535C21.3045 6.7948 22.2937 9.21248 22.2906 12.0684C22.2906 13.2217 22.1071 14.3094 21.7401 15.3317C21.3732 16.3539 20.8752 17.2582 20.2461 18.0445L30.1538 27.9522L27.9521 30.1539ZM12.0684 19.1453C14.0342 19.1453 15.7054 18.4576 17.082 17.082C18.4586 15.7065 19.1463 14.0353 19.1453 12.0684C19.1442 10.1016 18.4565 8.43088 17.082 7.05638C15.7075 5.68188 14.0363 4.99359 12.0684 4.99149C10.1004 4.98939 8.42977 5.67769 7.05632 7.05638C5.68287 8.43507 4.99458 10.1057 4.99143 12.0684C4.98829 14.0311 5.67658 15.7023 7.05632 17.082C8.43606 18.4618 10.1067 19.1495 12.0684 19.1453Z" fill="#FFD89A"/>
</svg>
