<svg width="64" height="64" viewBox="0 0 64 64" fill="none" xmlns="http://www.w3.org/2000/svg">
<rect width="64" height="64" rx="32" fill="#0F172A"/>
<path d="M12.9721 42.456L12.5643 42.2533C12.5192 42.3439 12.4356 42.3644 12.3133 42.3149C12.2182 42.3016 12.1434 42.2588 12.089 42.1865C11.9662 41.9107 11.8075 41.7753 11.6129 41.7803C11.4138 41.8169 11.1648 41.7496 10.8657 41.5783L10.8182 41.5716C10.7231 41.5583 10.61 41.5585 10.4788 41.5724C10.3748 41.6224 10.2775 41.6249 10.1869 41.5799L9.89423 41.2479C9.88978 41.2796 9.85587 41.291 9.79249 41.2821C9.69742 41.2687 9.60458 41.2395 9.51397 41.1944C9.42336 41.1494 9.39612 41.1133 9.43227 41.086L8.68433 40.5447L8.58258 40.5788L8.13989 39.935C8.10374 39.9622 8.06983 39.9736 8.03814 39.9691C7.97476 39.9602 7.91807 39.9038 7.86805 39.7998C7.81358 39.7275 7.7705 39.6892 7.73881 39.6847C7.57095 39.4995 7.3714 39.3099 7.14015 39.1158C6.93615 38.9579 6.73437 38.7841 6.53482 38.5945C6.50758 38.5584 6.50065 38.4928 6.51401 38.3977C6.52291 38.3343 6.4979 38.2824 6.43898 38.2418C6.35728 38.1333 6.25973 38.0227 6.14633 37.9098C6.03294 37.7969 5.9693 37.6749 5.95543 37.5437L5.75862 37.5645C5.61748 37.1892 5.44019 36.8411 5.22676 36.5203C5.01334 36.1995 4.95587 35.8036 5.05436 35.3327L4.9593 35.3194L4.37477 34.9949L4.39481 34.8523C4.36312 34.8478 4.31336 34.857 4.24553 34.8798C4.18216 34.8709 4.10516 34.8439 4.01455 34.7988C3.80609 34.6726 3.6157 34.5327 3.44338 34.3793C3.27552 34.1941 3.15964 33.9839 3.09575 33.7487C3.07742 33.6492 3.03657 33.595 2.97319 33.5861C2.94151 33.5817 2.91204 33.5614 2.88481 33.5252C2.8437 33.3579 2.76867 33.2019 2.65973 33.0573C2.55079 32.9128 2.52553 32.7476 2.58394 32.562L2.89354 31.3937C3.18714 31.1441 3.39731 31.0282 3.52406 31.0461C3.65082 31.0639 3.69415 31.2154 3.65407 31.5006L3.30207 31.9358L3.26944 32.5129C3.32391 32.5852 3.41452 32.6302 3.54128 32.648C3.66803 32.6659 3.76532 32.6634 3.83315 32.6406L3.74554 32.9191L3.88891 33.2786L3.9498 33.1902L4.22164 33.3253L4.41254 33.6914C4.49373 33.5736 4.55711 33.5825 4.60267 33.7182C4.65269 33.8221 4.6777 33.8741 4.6777 33.8741L4.94208 33.7174C4.93266 33.5545 4.92324 33.3916 4.91382 33.2287C4.90885 33.0341 4.9175 32.8576 4.93977 32.6992C4.97094 32.4773 5.00906 32.3211 5.05411 32.2305C5.19816 31.8953 5.2677 31.6304 5.26274 31.4358C5.26274 31.4358 5.3417 31.3338 5.49963 31.1298C5.66201 30.8941 5.81104 30.7535 5.9467 30.7079L6.36036 30.5237L6.43539 30.6797C6.39924 30.7069 6.32251 30.7931 6.20517 30.9381C6.08784 31.0832 5.99303 31.183 5.92075 31.2375C5.59153 31.7405 5.42075 32.2659 5.40842 32.8135C5.40396 32.8452 5.39728 32.8927 5.38838 32.9561C5.41561 32.9922 5.40671 33.0556 5.36166 33.1462L5.26813 33.8117C5.32706 33.8523 5.34093 33.9835 5.30976 34.2053C5.28303 34.3954 5.30359 34.4791 5.37142 34.4563C5.53432 34.4469 5.65439 34.5123 5.73164 34.6524C5.84504 34.7653 5.94678 34.7311 6.03688 34.5499L6.31617 34.9769L6.7915 35.0437C6.7509 35.1026 6.82121 35.1771 7.00244 35.2672C7.21981 35.3301 7.4394 35.3771 7.66122 35.4083C7.88304 35.4395 7.99395 35.455 7.99395 35.455L8.24574 35.7328C8.2502 35.7011 8.29328 35.7395 8.37498 35.8479L8.42252 35.8546C8.51758 35.8679 8.6171 35.8496 8.72107 35.7996C8.85673 35.754 8.95625 35.7357 9.01963 35.7446C9.17362 35.7986 9.32316 35.8842 9.46824 36.0015C9.64501 36.1233 9.78761 36.1434 9.89603 36.0617L10.2563 36.2577L10.7175 36.0802C10.7719 36.1525 10.8898 36.2336 11.071 36.3237C11.1299 36.3643 11.2228 36.3935 11.3495 36.4114C11.6347 36.4514 11.8496 36.417 11.9942 36.3081L12.1509 36.5725C12.599 36.6031 13.0426 36.6655 13.4818 36.7595C13.9571 36.8263 14.4008 36.8887 14.8127 36.9466C15.1613 36.9955 15.494 37.0423 15.8109 37.0868C16.164 37.1041 16.5011 37.1192 16.8225 37.1321C16.9175 37.1454 16.9968 37.1566 17.0601 37.1655C17.128 37.1427 17.1777 37.1335 17.2094 37.138C17.4312 37.1691 17.6937 37.1414 17.9967 37.0547C18.2997 36.9681 18.5462 36.9381 18.7364 36.9648C18.7998 36.9737 18.949 36.9462 19.1842 36.8823C19.4555 36.7912 19.5236 36.8816 19.3885 37.1534L18.8797 37.3242L18.7438 37.2567C18.7077 37.2839 18.554 37.3431 18.2826 37.4342C18.0474 37.4981 17.9185 37.4961 17.8957 37.4283L16.8775 37.4306C16.7462 37.4445 16.5517 37.4495 16.2937 37.4455C16.0357 37.4416 15.909 37.4238 15.9134 37.3921L15.4723 37.427C15.4767 37.3953 15.4473 37.375 15.3839 37.3661C15.2571 37.3483 15.0603 37.3691 14.7935 37.4286C14.5583 37.4925 14.4271 37.5063 14.3998 37.4702C14.3771 37.4024 14.2186 37.3801 13.9245 37.4034C13.6665 37.3994 13.4108 37.3797 13.1573 37.344C12.777 37.2906 12.58 37.1983 12.5661 37.0671L12.1658 37.1562C12.2381 37.1017 12.2108 37.0656 12.0841 37.0478C11.9935 37.0027 11.9143 36.9916 11.8464 37.0144L11.7655 37.2454C11.6977 37.2681 11.6343 37.2592 11.5754 37.2186C11.5164 37.1781 11.4575 37.1375 11.3986 37.0969C11.2218 36.9751 10.9275 36.8852 10.5155 36.8273C10.1036 36.7694 9.70967 36.6979 9.33386 36.6128C8.95805 36.5277 8.73152 36.415 8.65427 36.2749L8.24729 36.4116C8.12053 36.3938 7.93263 36.3512 7.68357 36.2839C7.47066 36.1894 7.30305 36.1173 7.18075 36.0678C6.96784 35.9733 6.72324 35.8743 6.44695 35.7708C6.20235 35.6718 5.95106 35.6203 5.6931 35.6164L5.87732 36.0301L5.86396 36.1251C6.06797 36.2831 6.21331 36.5135 6.29998 36.8165C6.42279 37.0923 6.6471 37.2208 6.97289 37.2019L7.02865 37.8399L7.37551 38.131C7.41165 38.1038 7.44556 38.0924 7.47725 38.0968C7.57232 38.1102 7.72185 38.1959 7.92586 38.3538C8.12987 38.5117 8.29079 38.6313 8.40864 38.7125L8.5646 38.6374L8.74214 39.0986C8.77828 39.0714 8.8122 39.06 8.84389 39.0645C8.93895 39.0778 9.04541 39.1251 9.16326 39.2063C9.2811 39.2875 9.3581 39.3145 9.39424 39.2872L9.71361 39.4291L10.0597 39.3807C10.1597 39.5887 10.2189 39.7424 10.2372 39.8419C10.2556 39.9415 10.2942 40.0115 10.3531 40.0521C10.5027 40.1378 10.496 40.1853 10.3331 40.1947C10.2019 40.2086 10.1318 40.2472 10.1229 40.3106L10.1571 40.4123L10.5849 40.4725C10.5982 40.3774 10.7203 40.3138 10.951 40.2816C11.209 40.2855 11.4647 40.3053 11.7182 40.3409C12.0985 40.3944 12.3158 40.4572 12.3703 40.5295C12.4882 40.6107 12.5198 40.6151 12.4654 40.5429L12.8999 40.5555L13.1516 40.8332C13.2284 40.747 13.2984 40.7084 13.3618 40.7173C13.4569 40.7307 13.5339 40.7577 13.5928 40.7983C13.679 40.875 13.722 40.9134 13.722 40.9134C13.781 40.954 13.8533 40.8995 13.9389 40.75C14.0518 40.6366 14.1694 40.6046 14.2917 40.6541L14.4751 40.7284C14.6969 40.7595 14.9232 40.759 15.1539 40.7268C15.4164 40.6991 15.55 40.7825 15.555 40.9771L15.9211 40.7862L16.1521 40.8671L16.0036 41.234C15.9858 41.3608 15.9927 41.4264 16.0244 41.4308C16.0878 41.4397 16.1826 41.34 16.3089 41.1315C16.4623 40.9592 16.5279 40.9522 16.5057 41.1107L16.8918 40.7772C16.978 40.8539 17.1003 40.9034 17.2587 40.9257C17.5123 40.9613 17.7633 40.8997 18.0118 40.7407C18.2559 40.6134 18.5408 40.5404 18.8666 40.5215L18.9008 40.6233C18.9686 40.6005 19.0365 40.5777 19.1043 40.5549C19.1994 40.5683 19.2425 40.6067 19.2335 40.67L19.7631 40.696C19.9032 40.6187 20.1248 40.5368 20.4278 40.4501C20.7625 40.3679 20.9977 40.304 21.1333 40.2584L21.2076 40.075C21.2076 40.075 21.2868 40.0861 21.4452 40.1084C21.6398 40.1034 21.7552 40.0873 21.7913 40.0601L21.798 40.0126C21.8069 39.9492 21.8203 39.8541 21.8381 39.7274C21.8604 39.5689 21.9326 39.5144 22.0549 39.5639L22.2726 39.7399C22.5711 39.685 22.7791 39.5849 22.8964 39.4398C23.0499 39.2675 23.2645 39.12 23.5403 38.9971C23.6443 38.9471 23.7346 38.879 23.8113 38.7929C23.9198 38.7112 24.0396 38.6634 24.1708 38.6495C24.2025 38.654 24.2433 38.7082 24.2934 38.8122C24.3751 38.9206 24.4724 38.9181 24.5852 38.8047L24.6996 38.3361L25.1474 38.2536L25.4318 37.9543C25.4318 37.9543 25.4296 37.9701 25.4252 38.0018C25.4568 38.0062 25.4885 38.0107 25.5202 38.0151C25.647 38.033 25.8074 37.9262 26.0015 37.695C26.1955 37.4638 26.2517 37.2939 26.17 37.1855L26.7188 36.7294C26.7138 36.5349 26.8106 36.3061 27.0092 36.0432C27.2394 35.7847 27.3834 35.4495 27.4413 35.0375C27.4769 34.784 27.44 34.4719 27.3306 34.101C27.2211 33.7302 26.9577 33.3054 26.5402 32.8266L26.3226 32.6506C25.978 32.3437 25.6561 32.1045 25.3571 31.9333C25.0941 31.7347 24.7361 31.5228 24.2831 31.2976C24.2831 31.2976 24.24 31.2592 24.1538 31.1825L22.8764 30.6152C22.763 30.5023 22.4889 30.383 22.0542 30.2573C21.6194 30.1315 21.3251 30.0417 21.1711 29.9877C21.1122 29.9471 21.0396 29.8885 20.9535 29.8117C20.899 29.7395 20.8334 29.7464 20.7567 29.8326L20.3623 29.5348C20.2944 29.5575 20.213 29.5623 20.1179 29.5489C20.0545 29.54 19.9934 29.5152 19.9345 29.4746C19.9072 29.4385 19.8144 29.4093 19.6559 29.387C19.4386 29.3242 19.0875 29.1779 18.6028 28.9482C18.1497 28.7229 17.887 28.6376 17.8148 28.692L16.6657 27.9004L16.5165 27.9279L16.1221 27.6301C16.1993 27.7702 16.1315 27.793 15.9186 27.6985C15.7101 27.5722 15.4722 27.4257 15.2048 27.2588C14.9419 27.0603 14.7334 26.9341 14.5794 26.8801C14.0719 26.5826 13.6253 26.1967 13.2395 25.7224C12.8855 25.2525 12.7508 24.7166 12.8354 24.1145C12.9111 23.5758 12.9962 23.2 13.0908 22.987C13.1853 22.7741 13.2913 22.5951 13.4086 22.4501C13.5576 22.3094 13.7019 22.0873 13.8415 21.7838C13.9183 21.6977 14.0108 21.6137 14.1193 21.532C14.2638 21.4231 14.3609 21.3075 14.4104 21.1852L14.824 21.0009C14.878 20.847 14.9795 20.6996 15.1285 20.559C15.3092 20.4228 15.4674 20.332 15.6031 20.2864C16.0417 20.1542 16.5458 19.9019 17.1151 19.5295C17.7206 19.1299 18.2925 18.8548 18.8307 18.7042C18.9663 18.6586 19.0839 18.6267 19.1834 18.6084C19.2874 18.5584 19.405 18.5264 19.5362 18.5125L19.5704 18.6143C19.8689 18.5593 20.3643 18.4835 21.0565 18.3869C21.7531 18.2586 22.5131 18.1392 23.3365 18.0287C24.1916 17.9227 24.9789 17.8395 25.6983 17.779C26.4494 17.723 27.0309 17.7239 27.4429 17.7818C27.7281 17.8219 27.8798 17.8917 27.8982 17.9912L28.5153 17.7387C28.5425 17.7748 28.6015 17.8154 28.6921 17.8604C28.7871 17.8738 28.8527 17.8669 28.8889 17.8396L29.3442 18.049C29.4798 18.0035 29.5794 17.9851 29.6427 17.994C29.8329 18.0208 30.0299 18.1131 30.2339 18.271C30.4741 18.4017 30.6598 18.4601 30.791 18.4463C30.9583 18.4051 31.0715 18.4049 31.1304 18.4455C31.2255 18.4588 31.3205 18.4722 31.4156 18.4856L31.6057 18.5123C31.7008 18.5256 31.7936 18.5548 31.8842 18.5999C32.011 18.6177 32.1288 18.6989 32.2378 18.8435L32.4688 18.9244C32.5505 19.0328 32.5824 19.1504 32.5646 19.2772C32.6102 19.4128 32.7892 19.5188 33.1016 19.595C33.414 19.6712 33.6111 19.7636 33.6928 19.872C33.9196 20.0977 34.0176 20.4347 33.987 20.8828C33.9925 21.3036 33.9707 21.6883 33.9217 22.0369C33.841 22.381 33.6383 22.7888 33.3136 23.2602C33.0249 23.7043 32.6863 24.0445 32.2976 24.2807C32.1214 24.3852 31.8637 24.4944 31.5245 24.6083C31.1898 24.6905 30.9366 24.768 30.7648 24.8408C30.385 25.0137 29.9892 25.0711 29.5772 25.0132C28.9751 24.9286 28.6919 24.7596 28.7275 24.506C28.7409 24.411 28.8652 24.3315 29.1003 24.2676C29.2677 24.2265 29.4192 24.1832 29.5549 24.1376C29.7267 24.0648 29.8849 23.9739 30.0294 23.865C30.1651 23.8194 30.2488 23.7989 30.2804 23.8033C30.3483 23.7806 30.4003 23.7555 30.4364 23.7283C30.5042 23.7055 30.5562 23.6805 30.5924 23.6533C30.633 23.5944 30.7052 23.5399 30.8092 23.4899C31.0216 23.3582 31.2949 23.138 31.6291 22.8296C31.9994 22.4938 32.2613 22.2398 32.4148 22.0675C32.4688 21.9135 32.5611 21.7164 32.6918 21.4763C32.8586 21.2089 32.9576 20.9643 32.9888 20.7425C33.0155 20.5523 32.988 20.4031 32.9063 20.2946C32.8746 20.2902 32.861 20.2721 32.8655 20.2404L32.8313 20.1387C32.6535 19.5643 32.1888 19.192 31.4372 19.0218C30.7217 18.8243 30.1104 18.6899 29.6034 18.6187C29.6034 18.6187 29.574 18.5984 29.515 18.5578C29.4561 18.5172 29.4222 18.5286 29.4133 18.5919L28.3542 18.54L28.2725 18.4316L27.2476 18.4815L27.1592 18.4206L26.0734 18.5588C26.114 18.4999 26.1004 18.4818 26.0326 18.5046C25.9692 18.4957 25.9375 18.4912 25.9375 18.4912L24.8517 18.6294L24.8108 18.5752L24.2954 18.7936C24.2999 18.7619 24.2885 18.728 24.2612 18.6919C24.234 18.6557 24.2204 18.6377 24.2204 18.6377C24.1842 18.6649 24.1459 18.708 24.1053 18.7669C24.0691 18.7941 24.0172 18.8191 23.9493 18.8419L23.8609 18.781L23.1621 18.9252C23.1576 18.9569 23.092 18.9638 22.9653 18.946C22.0562 19.206 21.0591 19.5183 19.9738 19.8828C18.9246 20.22 18.0684 20.7945 17.4049 21.606L17.3232 21.4976L16.842 21.8177C16.8059 21.845 16.7516 21.8858 16.6794 21.9403C16.6388 21.9992 16.5756 22.1035 16.49 22.253C16.3593 22.4931 16.1744 22.7741 15.9353 23.096C15.7279 23.4223 15.6019 23.7439 15.5573 24.0608C15.5128 24.3777 15.5339 24.6876 15.6205 24.9906C15.7117 25.2619 15.7978 25.3387 15.879 25.2208L16.2667 25.5662L16.3358 26.1091L16.4376 26.0749L16.9887 26.6371L17.0838 26.6504L17.7575 27.3752L18.2811 27.7881L18.6614 27.8416L19.205 28.1119C19.264 28.1525 19.3048 28.2067 19.3276 28.2745C19.3865 28.3151 19.4702 28.2945 19.5786 28.2128L20.0072 28.6124C20.0433 28.5851 20.0931 28.576 20.1565 28.5849C20.2198 28.5938 20.2788 28.6344 20.3332 28.7067C20.3922 28.7473 20.4352 28.7856 20.4625 28.8218L20.5642 28.7876L22.1343 29.6869C22.2022 29.6641 22.2836 29.6594 22.3787 29.6727C22.5371 29.695 22.6594 29.7445 22.7456 29.8213C22.8679 29.8708 22.9902 29.9203 23.1125 29.9698C23.1714 30.0104 23.244 30.069 23.3301 30.1458C23.448 30.2269 23.5047 30.2834 23.5002 30.3151C23.5591 30.3557 23.6203 30.3804 23.6837 30.3893C23.7787 30.4027 23.8579 30.4138 23.9213 30.4227L24.3291 30.6255L24.7235 30.9232L25.1446 31.0309C25.1446 31.0309 25.2624 31.1121 25.4981 31.2745C25.77 31.4096 26.0418 31.5448 26.3136 31.6799C26.6172 31.8195 26.7825 31.9074 26.8098 31.9435L27.0549 32.2688L27.1091 32.228L27.4151 32.4648C27.7325 32.7357 28.021 33.2124 28.2805 33.8952C28.5761 34.5507 28.6727 35.2429 28.5703 35.9717C28.5035 36.4471 28.3575 36.9113 28.1322 37.3643C27.9431 37.7902 27.7335 38.1323 27.5032 38.3908C26.9388 38.9578 26.3358 39.4547 25.6942 39.8815C25.0842 40.3128 24.5329 40.6716 24.0403 40.9578C23.8685 41.0306 23.7464 41.0942 23.6741 41.1487C23.6019 41.2032 23.5023 41.2215 23.3756 41.2037C23.2761 41.222 23.1902 41.2584 23.1179 41.3129C22.6386 41.5041 22.1163 41.6568 21.5508 41.7713C20.981 41.9174 20.4767 42.0566 20.038 42.1888C19.839 42.2254 19.6761 42.2349 19.5493 42.2171C19.4181 42.2309 19.2869 42.2448 19.1557 42.2587C19.124 42.2542 19.0584 42.2612 18.9589 42.2795C18.8866 42.334 18.8527 42.3453 18.8571 42.3137L18.491 42.5046C18.4638 42.4684 18.4185 42.4459 18.3551 42.437C18.2283 42.4192 18.0768 42.4625 17.9006 42.567C17.756 42.6759 17.6226 42.7057 17.5003 42.6562L17.4527 42.6495C17.3577 42.6361 17.2287 42.6341 17.0658 42.6436C16.9301 42.6891 16.8351 42.6758 16.7806 42.6035L16.1293 42.7543L16.0676 42.5033C16.0359 42.4988 15.9839 42.5238 15.9116 42.5783C15.8666 42.6689 15.8124 42.7098 15.749 42.7009C15.749 42.7009 15.6901 42.6603 15.5722 42.5791C15.4544 42.4979 15.3549 42.5162 15.2737 42.6341L14.7308 42.7032C14.7169 42.572 14.6307 42.4952 14.4723 42.473C14.3455 42.4551 14.2279 42.4871 14.1195 42.5688L13.766 42.3252L13.7593 42.3728L13.3857 42.2718L12.9721 42.456ZM36.2563 44.0319C36.0751 43.9418 35.8758 43.8653 35.6584 43.8024C35.4728 43.744 35.2735 43.6675 35.0606 43.573L35.2782 43.749C35.1514 43.7312 35.0291 43.6817 34.9113 43.6005C34.8207 43.5554 34.7256 43.5421 34.6261 43.5604L33.7564 43.1958L33.7155 43.1416C33.6066 42.997 33.4954 42.8683 33.382 42.7554C33.2686 42.6425 33.0966 42.6022 32.8658 42.6344C32.9247 42.675 32.9859 42.6998 33.0493 42.7087C33.1127 42.7176 33.1557 42.7559 33.1785 42.8238L33.0834 42.8104C32.9567 42.7926 32.8661 42.7475 32.8116 42.6753C32.7571 42.603 32.6868 42.5285 32.6007 42.4517C32.1654 42.0997 31.7844 41.7069 31.4576 41.2732L31.4642 41.2256C31.3598 41.0494 31.287 40.8776 31.2459 40.7102C31.2092 40.5112 31.1183 40.353 30.9732 40.2357L30.9257 40.229C30.8574 40.0255 30.7913 39.8062 30.7274 39.571C30.6996 39.3086 30.6696 39.062 30.6374 38.8313C30.6508 38.7362 30.6461 38.6548 30.6233 38.5869C30.6367 38.4919 30.65 38.3968 30.6634 38.3017C30.6812 38.175 30.6968 38.0641 30.7101 37.969C30.7596 37.8467 30.8092 37.7244 30.8587 37.6021C30.6913 37.6432 30.6188 37.5845 30.641 37.4261C30.6583 37.0731 30.6915 36.7223 30.7405 36.3737C30.8211 36.0296 30.9221 35.656 31.0434 35.2529L31.2862 34.56C31.3718 34.4105 31.4825 34.3129 31.6182 34.2673C31.7538 34.2218 31.8169 34.1175 31.8075 33.9547C31.7758 33.9502 31.7419 33.9616 31.7058 33.9888C31.6696 34.0161 31.6199 34.0252 31.5565 34.0163C31.5565 34.0163 31.5406 34.0141 31.509 34.0096C31.5134 33.9779 31.5179 33.9463 31.5223 33.9146L31.5699 33.9213L31.5765 33.8737C31.5493 33.8376 31.5515 33.8217 31.5832 33.8262C31.6149 33.8306 31.6171 33.8148 31.5899 33.7787L31.5966 33.7311C31.6188 33.5727 31.6886 33.4209 31.806 33.2758C31.9278 33.0991 32.0337 32.9201 32.1238 32.7388C32.2094 32.5893 32.3246 32.4601 32.4691 32.3511C32.6454 32.2466 32.7152 32.0949 32.6785 31.8958L32.5359 31.8758C32.6399 31.8258 32.6963 31.7691 32.7052 31.7057L32.7595 31.6649L33.3751 30.7335L33.4226 30.7401C33.6761 30.7758 33.7959 30.728 33.7821 30.5968C33.7999 30.47 33.8199 30.3274 33.8422 30.169L33.8489 30.1214L34.316 29.557C34.5195 29.4886 34.6663 29.3638 34.7564 29.1826C34.8509 28.9697 34.9705 28.8088 35.115 28.6998C35.2007 28.5503 35.3136 28.4369 35.4537 28.3597C35.5982 28.2507 35.7292 28.1237 35.8465 27.9786C36.0723 27.7518 36.2958 27.5409 36.5171 27.3458C36.7429 27.119 36.9823 26.9103 37.2353 26.7196C37.4026 26.6785 37.5247 26.6149 37.6014 26.5287C37.6781 26.4426 37.7729 26.3428 37.8858 26.2294C37.8903 26.1977 37.8925 26.1819 37.8925 26.1819C37.9242 26.1863 37.9423 26.1727 37.9467 26.141C38.0596 26.0276 38.1975 25.9662 38.3604 25.9568C38.5233 25.9474 38.6475 25.8679 38.7332 25.7184C38.8188 25.5688 38.9339 25.4396 39.0785 25.3307C39.3676 25.1128 39.6704 24.913 39.9868 24.7312C40.3076 24.5178 40.6262 24.3202 40.9426 24.1385C41.1371 24.1335 41.2842 24.1219 41.3837 24.1035C41.4877 24.0535 41.553 23.9334 41.5798 23.7433L41.6273 23.75C42.0115 23.5455 42.3935 23.3568 42.7732 23.184C43.153 23.0111 43.5146 22.8519 43.8583 22.7063C44.134 22.5835 44.3917 22.4743 44.6314 22.3787C44.9027 22.2876 45.1582 22.1943 45.3978 22.0987L45.5404 22.1187C45.6672 22.1365 45.7667 22.1182 45.839 22.0637C45.9112 22.0093 46.0016 21.9412 46.11 21.8595L46.1576 21.8661C48.6495 21.15 50.8936 20.9322 52.89 21.2128C53.1435 21.2484 53.4107 21.3021 53.6914 21.3739C53.9766 21.4139 54.2437 21.4676 54.4928 21.535C55.9554 21.9344 57.0113 22.5837 57.6605 23.4828C58.3142 24.3502 58.5764 25.2434 58.4472 26.1624C58.4027 26.4792 58.3084 26.8053 58.1644 27.1405C58.5124 26.9632 58.8288 26.7815 59.1135 26.5953C59.3982 26.4091 59.6398 26.1845 59.8383 25.9216C59.915 25.8354 59.9987 25.8149 60.0893 25.8599C60.1844 25.8733 60.1935 25.9231 60.1168 26.0092C59.9817 26.2811 59.7312 26.569 59.3653 26.873C59.0039 27.1454 58.6152 27.3816 58.1993 27.5817C58.1949 27.6133 58.1 27.7131 57.9149 27.881C57.7342 28.0172 57.6552 28.1192 57.678 28.187C57.6735 28.2187 57.6171 28.2754 57.5087 28.3571C57.4364 28.4116 57.3799 28.4683 57.3393 28.5272L56.9465 28.9082C56.9465 28.9082 56.9443 28.9241 56.9398 28.9557C56.9398 28.9557 56.9217 28.9694 56.8856 28.9966C56.8856 28.9966 56.8178 29.0194 56.6821 29.0649C56.6098 29.1194 56.4992 29.217 56.3502 29.3576C56.2328 29.5027 56.0905 29.5958 55.9231 29.6369L55.7196 29.7052C55.6835 29.7325 55.6451 29.7755 55.6045 29.8345C55.5684 29.8617 55.5142 29.9025 55.4419 29.957C55.2973 30.066 55.0374 30.191 54.6621 30.3321C54.3229 30.446 54.0652 30.5552 53.889 30.6597C53.889 30.6597 53.8551 30.6711 53.7872 30.6939C53.7194 30.7167 53.6335 30.7531 53.5295 30.8031L53.3802 30.8306C53.3486 30.8261 53.2807 30.8489 53.1768 30.8989C53.1045 30.9534 53.0503 30.9943 53.0141 31.0215C52.978 31.0487 52.9282 31.0579 52.8648 31.049C52.8331 31.0445 52.7812 31.0695 52.7089 31.124C52.6727 31.1512 52.623 31.1604 52.5596 31.1515C52.4962 31.1426 52.4284 31.1654 52.3561 31.2198L51.6164 31.3098C51.5802 31.337 51.4763 31.387 51.3045 31.4598C51.1688 31.5054 51.0851 31.5259 51.0534 31.5215L50.9584 31.5081C50.9267 31.5037 50.8928 31.5151 50.8566 31.5423C50.8522 31.574 50.8183 31.5854 50.7549 31.5765C50.7187 31.6037 50.669 31.6129 50.6056 31.604C50.5784 31.5678 50.5308 31.5611 50.463 31.5839C50.4313 31.5795 50.3793 31.6045 50.3071 31.6589C50.2709 31.6862 50.237 31.6976 50.2053 31.6931L50.0627 31.6731L49.7575 31.7756C49.6263 31.7895 49.4814 31.7853 49.323 31.763C49.1962 31.7452 49.0492 31.7568 48.8818 31.798C48.8501 31.7935 48.789 31.7687 48.6984 31.7237C48.6395 31.6831 48.5783 31.6583 48.5149 31.6494C48.2164 31.7044 47.9245 31.7119 47.6393 31.6718C47.6032 31.699 47.5715 31.6946 47.5442 31.6584C47.5487 31.6267 47.5351 31.6087 47.5034 31.6042C47.4717 31.5998 47.4536 31.6134 47.4492 31.6451C47.4492 31.6451 47.4333 31.6428 47.4016 31.6384C47.4016 31.6384 47.3541 31.6317 47.259 31.6184C47.2001 31.5778 47.157 31.5394 47.1298 31.5032L47.0823 31.4966C47.0189 31.4877 46.9736 31.4651 46.9463 31.429C46.9191 31.3928 46.8897 31.3726 46.858 31.3681C46.858 31.3681 46.8557 31.3839 46.8513 31.4156C46.8513 31.4156 46.8354 31.4134 46.8038 31.409C46.7721 31.4045 46.7426 31.3842 46.7154 31.3481C46.652 31.3392 46.5433 31.3077 46.3893 31.2538C46.2715 31.1726 46.1989 31.1139 46.1717 31.0778C46.0722 31.0961 45.9816 31.051 45.8999 30.9426C45.8454 30.8703 45.8159 30.85 45.8115 30.8817L45.4988 30.6924C45.5032 30.6607 45.4896 30.6426 45.4579 30.6381C45.4624 30.6065 45.4646 30.5906 45.4646 30.5906L45.3695 30.5773C45.3151 30.505 45.272 30.4666 45.2403 30.4621C45.222 30.3626 45.1992 30.2948 45.172 30.2587C45.1447 30.2225 45.1039 30.1683 45.0494 30.096C45.0672 29.9693 45.0603 29.9037 45.0286 29.8992C45.0375 29.8358 45.0033 29.7341 44.9261 29.594C44.885 29.4266 44.8733 29.2796 44.8911 29.1528L44.8503 29.0986C44.7413 28.954 44.7408 28.7278 44.8487 28.4198C44.9027 28.2658 44.8958 28.2002 44.8279 28.223C44.7645 28.2141 44.7938 28.1212 44.9155 27.9444L45.22 27.5025C45.2245 27.4708 45.2108 27.4528 45.1792 27.4483C45.1519 27.4122 45.1564 27.3805 45.1925 27.3532C45.197 27.3216 45.1992 27.3057 45.1992 27.3057C45.2353 27.2785 45.2556 27.249 45.2601 27.2173C45.2962 27.1901 45.321 27.1289 45.3343 27.0339C45.3433 26.9705 45.3658 26.9252 45.4019 26.898C45.4064 26.8663 45.447 26.8073 45.5237 26.7212C45.6366 26.6078 45.7111 26.5375 45.7472 26.5102L46.0792 26.2176C46.1153 26.1904 46.1673 26.1653 46.2352 26.1426C46.303 26.1198 46.3572 26.0789 46.3978 26.02C46.4701 25.9655 46.5379 25.9428 46.6013 25.9517C46.7008 25.9333 46.7709 25.8947 46.8115 25.8358C46.9288 25.6907 47.0508 25.6271 47.1776 25.6449L47.2727 25.6582C47.3994 25.6761 47.4583 25.7167 47.4494 25.78C47.4272 25.9385 47.3143 26.0519 47.1108 26.1202C46.9662 26.2292 46.8939 26.2836 46.8939 26.2836C46.8984 26.2519 46.8464 26.2769 46.738 26.3586C46.7335 26.3903 46.6996 26.4017 46.6362 26.3928C46.6045 26.3884 46.5842 26.4178 46.5753 26.4812C46.5436 26.4768 46.5414 26.4926 46.5687 26.5287C46.5959 26.5649 46.5892 26.6124 46.5486 26.6713C46.5308 26.7981 46.5219 26.8615 46.5219 26.8615C46.4858 26.8887 46.4791 26.9362 46.5019 27.0041C46.5291 27.0402 46.5224 27.0877 46.4818 27.1467C46.4501 27.1422 46.4162 27.1536 46.3801 27.1808L46.239 27.8396C46.239 27.8396 46.2415 27.9369 46.2465 28.1315C46.2559 28.2944 46.2425 28.3895 46.2064 28.4167L46.173 28.6544C46.1596 28.7494 46.2889 28.8645 46.5607 28.9997C46.5879 29.0358 46.6174 29.0561 46.6491 29.0606C46.7169 29.0378 46.7644 29.0445 46.7917 29.0806C47.1858 29.2653 47.4418 29.3982 47.5597 29.4794C47.682 29.5289 47.9649 29.5848 48.4086 29.6472L48.7888 29.7006C48.9473 29.7229 49.0921 29.7271 49.2233 29.7132C49.255 29.7176 49.2528 29.7335 49.2166 29.7607C49.2166 29.7607 49.2325 29.7629 49.2642 29.7674L49.8479 29.7525C49.8841 29.7253 49.918 29.7139 49.9497 29.7183C49.9858 29.6911 50.0175 29.6955 50.0447 29.7317C50.0764 29.7361 50.1081 29.7406 50.1398 29.745L51.2256 29.6068C51.4246 29.5702 51.6078 29.5313 51.7752 29.4902C51.9787 29.4218 52.1777 29.3852 52.3723 29.3802C52.6664 29.3569 52.983 29.2883 53.3222 29.1744C53.6658 29.0288 54.0049 28.9149 54.3396 28.8327C54.3441 28.801 54.5001 28.726 54.8075 28.6076C55.1467 28.4937 55.5039 28.3662 55.8792 28.225L56.0886 27.7697C56.1742 27.6202 56.2804 27.5543 56.4072 27.5722C56.5384 27.5583 56.6424 27.5083 56.7191 27.4221C56.633 27.3454 56.5604 27.2867 56.5015 27.2461C56.4426 27.2055 56.4537 27.1263 56.5349 27.0084L56.5416 26.9609L56.8861 26.2338C57.0663 25.8713 57.1809 25.5158 57.2299 25.1672C57.3412 24.375 57.1204 23.7623 56.5673 23.3291C56.0142 22.8959 55.3257 22.6215 54.5018 22.5057C54.375 22.4878 54.2324 22.4678 54.074 22.4455C53.9472 22.4277 53.8024 22.4235 53.6395 22.4329C53.3498 22.4246 53.058 22.432 52.7639 22.4553C52.4698 22.4786 52.1598 22.4997 51.834 22.5185L51.739 22.5051C51.6122 22.4873 51.4968 22.5034 51.3929 22.5535C51.2933 22.5718 51.1916 22.606 51.0876 22.656C50.6262 22.7204 50.1105 22.8256 49.5406 22.9717C49.2465 22.995 49.0272 23.0612 48.8826 23.1701C48.7469 23.2157 48.6633 23.2362 48.6316 23.2318L48.6249 23.2793C48.4259 23.3159 48.263 23.3254 48.1362 23.3076C48.0728 23.2986 47.9936 23.2875 47.8986 23.2742C47.8079 23.2291 47.7151 23.1999 47.62 23.1865C47.679 23.2271 47.7243 23.2497 47.756 23.2541C47.7876 23.2586 47.8171 23.2789 47.8443 23.315C47.8627 23.4145 47.8221 23.4734 47.7226 23.4918C47.6547 23.5146 47.6005 23.5554 47.5599 23.6143L47.5124 23.6077C47.4762 23.6349 47.4084 23.6577 47.3089 23.676C47.2411 23.6988 47.171 23.7374 47.0987 23.7919C46.8091 23.7835 46.5422 23.8429 46.2981 23.9702C46.0857 24.1019 45.8869 24.2517 45.7018 24.4196L45.6542 24.4129L44.4541 25.0198C44.1828 25.1109 43.9387 25.2382 43.7218 25.4016C43.2653 25.6606 42.8066 25.9354 42.3457 26.2261C41.8847 26.5167 41.4238 26.8074 40.9629 27.0981L40.8678 27.0847C40.7094 27.0625 40.6076 27.0966 40.5626 27.1873C40.5537 27.2506 40.5064 27.3571 40.4207 27.5066L40.3732 27.4999C40.2603 27.6133 40.1338 27.7087 39.9937 27.7859C39.8625 27.7998 39.7744 27.852 39.7293 27.9426C39.6843 28.0333 39.6075 28.1194 39.4991 28.2011L39.1196 28.4871C38.9973 28.4376 38.8614 28.37 38.7119 28.2844C38.5985 28.1715 38.4625 28.1039 38.3041 28.0816C38.3041 28.0816 38.286 28.0953 38.2499 28.1225C38.2499 28.1225 38.2454 28.1542 38.2365 28.2176C38.4222 28.276 38.5695 28.3775 38.6785 28.522C38.7874 28.6666 38.7515 28.807 38.5708 28.9431L38.4624 29.0249C38.3178 29.1338 38.1527 29.1591 37.967 29.1006C37.813 29.0467 37.6615 29.09 37.5125 29.2307C37.5714 29.2713 37.6484 29.2982 37.7435 29.3116C37.8385 29.325 37.8749 29.4109 37.8527 29.5693C37.6675 29.7372 37.4823 29.905 37.2972 30.0729C37.1437 30.2452 36.9744 30.4153 36.7892 30.5832C36.6446 30.6921 36.5137 30.8191 36.3964 30.9642C36.2835 31.0776 36.1411 31.1707 35.9693 31.2435C35.9332 31.2707 35.9107 31.316 35.9018 31.3794C35.929 31.4155 35.9245 31.4472 35.8884 31.4745L35.8817 31.522L35.0084 32.5626C34.8366 32.6354 34.6965 32.7126 34.5881 32.7943C34.4796 32.876 34.4121 33.012 34.3853 33.2021C34.5299 33.0932 34.6 33.0545 34.5955 33.0862L34.5888 33.1337C34.5799 33.1971 34.5393 33.256 34.467 33.3105C34.3992 33.3333 34.345 33.3742 34.3044 33.4331L33.9866 33.9701C33.5673 34.6544 33.2541 35.2728 33.0472 35.8254C32.7725 36.4008 32.5972 36.9578 32.5215 37.4965C32.472 37.6188 32.3908 37.7366 32.278 37.85C32.2012 37.9362 32.2015 38.0493 32.2787 38.1894C32.3332 38.2617 32.3741 38.3159 32.4013 38.3521C32.433 38.3565 32.4399 38.4221 32.4221 38.5489C32.3998 38.7073 32.4001 38.8205 32.4229 38.8883L32.4028 39.0309C32.3895 39.126 32.3444 39.2166 32.2677 39.3027C32.1909 39.3889 32.1617 39.4817 32.1801 39.5813C32.2073 39.6174 32.2685 39.6422 32.3635 39.6555C32.463 39.6372 32.5242 39.6619 32.547 39.7298L32.7587 40.2927C32.8448 40.3694 32.8949 40.4734 32.9087 40.6046C32.9226 40.7358 32.9409 40.8354 32.9637 40.9032C33.0182 40.9755 33.0885 41.05 33.1747 41.1267C33.2653 41.1718 33.3197 41.2441 33.3381 41.3436C33.3336 41.3753 33.3133 41.4047 33.2772 41.432C33.2772 41.432 33.2727 41.4636 33.2638 41.527C33.4312 41.4859 33.4648 41.3614 33.3648 41.1534C33.5371 41.3069 33.5193 41.4337 33.3113 41.5337C33.3747 41.5426 33.4381 41.5515 33.5015 41.5604C33.5693 41.5376 33.6349 41.5307 33.6983 41.5396C33.825 41.5574 33.9451 41.6228 34.0585 41.7357C34.5299 42.0604 35.0758 42.3149 35.6962 42.499C36.3439 42.7193 37.0479 42.8829 37.8085 42.9898C38.6641 43.11 39.5942 43.1599 40.5988 43.1395C41.5989 43.1509 42.6058 43.1146 43.6193 43.0309L43.626 42.9833C43.6894 42.9922 43.7347 43.0148 43.7619 43.0509C43.7936 43.0554 43.8253 43.0598 43.857 43.0643C44.0154 43.0865 44.1669 43.0432 44.3115 42.9343L44.8544 42.8651C45.1302 42.7423 45.3856 42.649 45.6208 42.5851C45.856 42.5212 46.0959 42.5388 46.3405 42.6378C46.3994 42.6784 46.395 42.71 46.3271 42.7328C46.2954 42.7284 46.2751 42.7578 46.2662 42.8212C46.3341 42.7984 46.3883 42.7576 46.4289 42.6987C46.4695 42.6397 46.5237 42.5989 46.5915 42.5761L46.8901 42.5211C47.1164 42.5206 47.3132 42.4998 47.4805 42.4587C47.6523 42.3859 47.8377 42.3311 48.0368 42.2945L48.5864 42.1778C48.6453 42.2184 48.7064 42.2432 48.7698 42.2521C48.8966 42.2699 48.9961 42.2516 49.0684 42.1971C49.1451 42.111 49.2535 42.0293 49.3936 41.952C49.4253 41.9565 49.509 41.9359 49.6447 41.8903C49.812 41.8492 49.993 41.8262 50.1876 41.8212C50.3866 41.7846 50.5584 41.7118 50.703 41.6028L50.7505 41.6095C51.257 41.4545 51.7477 41.2972 52.2225 41.1378C52.6973 40.9783 53.1563 40.8166 53.5994 40.6527L54.983 40.1201C55.1593 40.0156 55.3016 39.9225 55.41 39.8408C55.5185 39.7591 55.6519 39.7293 55.8103 39.7516L55.8645 39.7108C56.1175 39.5201 56.3797 39.3792 56.651 39.2881C56.9268 39.1653 57.155 39.0358 57.3357 38.8996C57.6204 38.7134 57.8262 38.6292 57.9529 38.6471C58.048 38.6604 58.0866 38.7305 58.0688 38.8572C58.0465 39.0157 57.927 39.1766 57.7101 39.34C57.3893 39.5534 57.0323 39.7941 56.6392 40.062C56.2461 40.3299 55.8032 40.6069 55.3106 40.8932C55.1343 40.9977 54.9489 41.0524 54.7543 41.0574C54.5914 41.0668 54.4649 41.1621 54.3748 41.3433C54.1669 41.4434 53.9431 41.5412 53.7035 41.6367C53.4955 41.7368 53.2559 41.8324 52.9846 41.9235C52.6771 42.0418 52.3538 42.158 52.0146 42.2719C51.7072 42.3902 51.368 42.5042 50.9972 42.6136C50.9021 42.6002 50.7912 42.5847 50.6644 42.5668C50.5738 42.5218 50.481 42.4926 50.3859 42.4792C50.1641 42.4481 49.999 42.4733 49.8906 42.555C49.8906 42.555 49.8883 42.5709 49.8839 42.6026C49.8839 42.6026 49.8953 42.6365 49.9181 42.7043C49.9814 42.7132 50.0448 42.7221 50.1082 42.731C50.176 42.7082 50.2394 42.7172 50.2983 42.7577C50.2983 42.7577 50.2961 42.7736 50.2916 42.8053C50.2872 42.837 50.2533 42.8484 50.1899 42.8395C50.0542 42.885 49.9547 42.9033 49.8913 42.8944L49.8846 42.942L49.5319 43.0378L49.4843 43.0311C49.3398 43.1401 49.2492 43.095 49.2125 42.896C49.113 42.9143 49.009 42.9643 48.9006 43.046C48.8239 43.1322 48.7335 43.2003 48.6295 43.2503L48.2768 43.3461C48.1455 43.36 48.0143 43.3739 47.8831 43.3877C47.7564 43.3699 47.6546 43.4041 47.5779 43.4903L47.5304 43.4836C47.3947 43.5291 47.2273 43.5703 47.0283 43.6069C46.8654 43.6163 46.7003 43.6416 46.5329 43.6827L46.5263 43.7302L46.2886 43.6968C46.1302 43.6746 45.9581 43.6342 45.7724 43.5758C45.5912 43.4857 45.4055 43.4273 45.2154 43.4006C45.2654 43.5046 45.3696 43.5677 45.5281 43.59C45.6821 43.6439 45.7185 43.7298 45.6373 43.8477C45.6328 43.8793 45.6147 43.893 45.5831 43.8885L44.3004 44.0476L44.2938 44.0951C44.1625 44.109 44.0177 44.1048 43.8593 44.0825C43.7281 44.0964 43.5946 44.1261 43.459 44.1717C42.1786 44.3149 40.9274 44.3652 39.7054 44.3227C38.4834 44.2803 37.3496 44.1855 36.3039 44.0386L36.2563 44.0319ZM48.4666 31.3034C48.5028 31.2761 48.5684 31.2692 48.6634 31.2825C48.7947 31.2687 48.8942 31.2503 48.962 31.2276L50.0211 31.2795C50.0528 31.2839 50.0867 31.2725 50.1228 31.2453C50.159 31.2181 50.1929 31.2067 50.2246 31.2111C50.2607 31.1839 50.3105 31.1747 50.3739 31.1836C50.5501 31.0791 50.6316 31.0744 50.6182 31.1695C50.6093 31.2329 50.6749 31.2259 50.815 31.1487C50.8512 31.1214 50.9009 31.1123 50.9643 31.1212C51.0366 31.0667 51.0886 31.0417 51.1202 31.0462C51.1881 31.0234 51.2401 30.9984 51.2762 30.9711C51.344 30.9484 51.378 30.937 51.378 30.937C51.3824 30.9053 51.4163 30.8939 51.4797 30.9028L51.5272 30.9095C51.5906 30.9184 51.7082 30.8864 51.88 30.8136C52.0518 30.7408 52.1377 30.7044 52.1377 30.7044C52.1694 30.7089 52.2055 30.6817 52.2461 30.6227C52.3184 30.5683 52.3704 30.5433 52.4021 30.5477C52.4382 30.5205 52.488 30.5113 52.5514 30.5202C52.6192 30.4974 52.6553 30.4702 52.6598 30.4385C52.7276 30.4157 52.7955 30.3929 52.8633 30.3702C52.9311 30.3474 52.9809 30.3382 53.0126 30.3427C53.0487 30.3154 53.1188 30.2768 53.2227 30.2268C53.3584 30.1812 53.4285 30.1426 53.4329 30.1109C53.5052 30.0565 53.5753 30.0178 53.6431 29.995C53.7426 29.9767 53.8104 29.9539 53.8466 29.9267C53.9461 29.9084 54.1902 29.7811 54.5788 29.5449C54.972 29.277 55.3242 28.9549 55.6356 28.5786C55.7079 28.5241 55.5542 28.5833 55.1744 28.7561C54.8308 28.9017 54.6409 28.9881 54.6048 29.0154C54.5731 29.0109 54.503 29.0495 54.3946 29.1312C54.2907 29.1812 54.2228 29.204 54.1911 29.1996L54.0827 29.2813L53.9401 29.2612L53.8859 29.3021C53.8859 29.3021 53.8181 29.3249 53.6824 29.3704C53.6507 29.366 53.5829 29.3888 53.4789 29.4388C53.3749 29.4888 53.3071 29.5116 53.2754 29.5071C53.2437 29.5027 53.2098 29.5141 53.1737 29.5413C53.142 29.5368 53.1103 29.5324 53.0786 29.5279C52.9385 29.6052 52.735 29.6735 52.4681 29.733C52.2329 29.7969 52.0678 29.8221 51.9728 29.8088L51.9252 29.8021C51.8618 29.7932 51.794 29.816 51.7217 29.8704L51.6675 29.9113L51.4232 29.9254C51.3553 29.9482 51.2717 29.9687 51.1722 29.9871C51.0726 30.0054 50.9912 30.0101 50.9278 30.0012C50.8917 30.0284 50.8736 30.0421 50.8736 30.0421C50.878 30.0104 50.8803 29.9945 50.8803 29.9945C50.808 30.049 50.7243 30.0696 50.6292 30.0562C50.5976 30.0517 50.5817 30.0495 50.5817 30.0495C50.5862 30.0178 50.5726 29.9998 50.5409 29.9953C50.5092 29.9908 50.4391 30.0295 50.3307 30.1112L50.093 30.0778C50.0886 30.1095 50.0547 30.1209 49.9913 30.1119L49.9437 30.1053C49.9121 30.1008 49.8623 30.11 49.7945 30.1328C49.7266 30.1555 49.6769 30.1647 49.6452 30.1603C49.6135 30.1558 49.5954 30.1694 49.591 30.2011C49.591 30.2011 49.5751 30.1989 49.5434 30.1944C49.5479 30.1627 49.5343 30.1447 49.5026 30.1402L49.4551 30.1335L49.1565 30.1885L49.0139 30.1685C48.9188 30.1551 48.8102 30.1237 48.6879 30.0742C48.5972 30.0291 48.4863 30.0135 48.3551 30.0274C48.3234 30.023 48.3054 30.0366 48.3009 30.0683C48.3009 30.0683 48.2851 30.066 48.2534 30.0616L48.1583 30.0482C48.1583 30.0482 48.1425 30.046 48.1108 30.0415C48.1108 30.0415 48.0927 30.0552 48.0566 30.0824C48.061 30.0507 48.0474 30.0326 48.0157 30.0282L47.7305 29.9881C47.735 29.9564 47.7213 29.9383 47.6897 29.9339C47.658 29.9294 47.6241 29.9408 47.5879 29.9681C47.5562 29.9636 47.5245 29.9592 47.4928 29.9547C47.3027 29.928 47.169 29.8446 47.0918 29.7044C47.0145 29.5643 46.8447 29.5082 46.5823 29.5359C46.5867 29.5042 46.5731 29.4861 46.5414 29.4817C46.5142 29.4455 46.5028 29.4116 46.5072 29.3799L46.4597 29.3733C46.3874 29.4277 46.3491 29.4708 46.3446 29.5025C46.3085 29.5297 46.3018 29.5773 46.3246 29.6451C46.3835 29.6857 46.3927 29.7355 46.3521 29.7944C46.3793 29.8305 46.3885 29.8803 46.3796 29.9437C46.4068 29.9798 46.4362 30.0001 46.4679 30.0045C46.4546 30.0996 46.4887 30.2014 46.5705 30.3098C46.566 30.3415 46.5774 30.3754 46.6046 30.4115C46.6636 30.4521 46.6772 30.4702 46.6455 30.4657C46.6727 30.5019 46.7022 30.5222 46.7339 30.5266C46.7656 30.5311 46.7769 30.565 46.768 30.6284L46.8906 30.791L46.9381 30.7977C47.2055 30.9645 47.4773 31.0997 47.7536 31.2031C48.0661 31.2794 48.3037 31.3128 48.4666 31.3034Z" fill="white"/>
</svg>
