<svg width="32" height="33" viewBox="0 0 32 33" fill="none" xmlns="http://www.w3.org/2000/svg">
<path d="M29.0321 0.10791H3.001C1.34876 0.10791 0 1.4962 0 3.19685V22.494C0 24.1947 1.34876 25.583 3.001 25.583H7.41819V30.4073C7.41819 31.0667 7.7891 31.6567 8.36233 31.9344C8.59836 32.0385 8.80067 32.1079 9.03671 32.1079C9.40762 32.1079 9.77853 31.9691 10.082 31.6914L17.0618 25.583H28.9984C30.6506 25.583 31.9994 24.1947 31.9994 22.494V3.19685C32.0331 1.4962 30.6843 0.10791 29.0321 0.10791ZM10.0097 21.0871C10.0097 21.2526 9.87968 21.3865 9.71892 21.3865H7.97275C7.81198 21.3865 7.68192 21.221 7.68192 21.0871V16.8938C7.68192 16.7283 7.81198 16.5944 7.97275 16.5944H9.71892C9.87968 16.5944 10.0097 16.7599 10.0097 16.8938V21.0871ZM14.666 21.0871C14.666 21.2526 14.5359 21.3865 14.3752 21.3865H12.629C12.4682 21.3865 12.3382 21.221 12.3382 21.0871V14.4971C12.3382 14.3316 12.4682 14.1978 12.629 14.1978H14.3752C14.5359 14.1978 14.666 14.3633 14.666 14.4971V21.0871ZM19.3222 21.0871C19.3222 21.2526 19.1922 21.3865 19.0314 21.3865H17.2852C17.1245 21.3865 16.9944 21.221 16.9944 21.0871V16.2945C16.9944 16.129 17.1245 15.9951 17.2852 15.9951H19.0314C19.1922 15.9951 19.3222 16.1606 19.3222 16.2945V21.0871ZM23.9785 21.0871C23.9785 21.2526 23.8484 21.3865 23.6876 21.3865H21.9415C21.7807 21.3865 21.6506 21.221 21.6506 21.0871V13.2991C21.6506 13.1336 21.7807 12.9998 21.9415 12.9998H23.6876C23.8484 12.9998 23.9785 13.1652 23.9785 13.2991V21.0871ZM25.1424 10.6025H22.814V7.50549L17.8169 12.649C17.5983 12.8739 17.3021 13.0004 16.9932 13.0004C16.6843 13.0004 16.3881 12.8739 16.1695 12.649L13.5009 9.90215L8.50383 15.0456L6.85641 13.3499L12.6772 7.35861C12.8951 7.13363 13.192 7.0072 13.5009 7.0072C13.8098 7.0072 14.106 7.13363 14.3246 7.35861L16.9932 10.1054L21.1665 5.8098H18.1571V3.41377H23.9773C24.2861 3.41377 24.5824 3.5402 24.8004 3.76456C25.0183 3.98891 25.1412 4.29384 25.1412 4.61178V10.6031L25.1424 10.6025Z" fill="#FFD89A"/>
</svg>
