<svg width="80" height="50" viewBox="0 0 80 50" fill="none" xmlns="http://www.w3.org/2000/svg">
<path d="M3.7259 47.9261C2.85615 47.9261 2.01336 47.6212 1.32565 47.0449C0.401961 46.2676 -0.0801117 45.1351 0.0109089 43.9323L0.776156 33.5928C0.894146 31.9813 2.03696 30.6411 3.61465 30.2558L22.4863 25.6489C24.0639 25.2636 25.6989 25.927 26.5552 27.3007L32.0502 36.1124C32.6873 37.1343 32.7918 38.3605 32.3333 39.4762C31.8749 40.5919 30.9377 41.396 29.7645 41.6808L4.63273 47.8155C4.32933 47.8892 4.02593 47.9261 3.7259 47.9261ZM23.3762 28.1182C23.2852 28.1182 23.1908 28.1282 23.0998 28.1517L4.2282 32.7586C3.74275 32.8758 3.39216 33.2879 3.35507 33.7838L2.58983 44.1233C2.56286 44.4919 2.71119 44.8403 2.99436 45.0815C3.27754 45.3194 3.64836 45.4065 4.01244 45.3194L29.1442 39.1847C29.505 39.0976 29.7949 38.8497 29.9365 38.5079C30.0781 38.1662 30.0443 37.7876 29.8488 37.4726L24.3539 28.661C24.1415 28.3192 23.7707 28.1215 23.3762 28.1215V28.1182Z" fill="url(#paint0_linear_98_24)"/>
<path d="M3.7259 47.9261C2.85615 47.9261 2.01336 47.6212 1.32565 47.0449C0.401961 46.2676 -0.0801117 45.1351 0.0109089 43.9323L0.836837 32.7586C0.90426 31.8472 1.30542 30.9962 1.96617 30.3596L27.3879 5.91806C27.8632 5.4624 28.4532 5.1374 29.0971 4.97993L49.0508 0.108371C50.6285 -0.276932 52.2635 0.386459 53.1198 1.76015L59.3496 11.7479C60.2699 13.2221 60.0272 15.172 58.7698 16.3782L34.0964 40.1028C33.6211 40.5584 33.0312 40.8834 32.3873 41.0409L4.62936 47.8189C4.32596 47.8926 4.02256 47.9294 3.72253 47.9294L3.7259 47.9261ZM49.9441 2.57431C49.8531 2.57431 49.7587 2.58436 49.6677 2.60781L29.714 7.47937C29.5151 7.52628 29.3364 7.62679 29.1881 7.76751L3.76635 32.2124C3.56408 32.4068 3.43935 32.6714 3.41913 32.9495L2.5932 44.1233C2.56623 44.4919 2.71456 44.8403 2.99773 45.0815C3.28091 45.3194 3.65173 45.4065 4.01582 45.3194L31.7737 38.5414C31.9726 38.4945 32.1513 38.394 32.2996 38.2533L56.973 14.5287C57.3606 14.1568 57.4348 13.5571 57.1516 13.1048L50.9218 3.11708C50.7094 2.77533 50.3386 2.57766 49.9475 2.57766L49.9441 2.57431Z" fill="url(#paint1_linear_98_24)"/>
<path d="M28.7802 25.4814C28.4397 25.4814 28.1026 25.3507 27.8497 25.0894C27.3542 24.5801 27.3677 23.7659 27.8801 23.2701L47.0079 4.87942C47.5203 4.38355 48.3429 4.39695 48.8384 4.90957C49.3373 5.41884 49.3239 6.23635 48.8081 6.72887L29.6803 25.1229C29.4274 25.3641 29.1038 25.4847 28.7802 25.4847V25.4814Z" fill="url(#paint2_linear_98_24)"/>
<path d="M50.5341 49.6884C49.4958 49.6884 48.5148 49.2663 47.7967 48.4889C46.9742 47.6044 46.6404 46.4184 46.8798 45.239L48.9294 35.0737C49.2497 33.489 50.5476 32.2995 52.1623 32.1119L71.4621 29.8705C73.0769 29.6828 74.6175 30.5439 75.2951 32.0114L79.6472 41.4329C80.1529 42.5251 80.1023 43.7548 79.509 44.8034C78.9157 45.8521 77.8841 46.5356 76.684 46.673L50.9825 49.6583C50.8341 49.675 50.6824 49.6851 50.5341 49.6851V49.6884ZM71.9003 32.4235C71.8565 32.4235 71.8093 32.4235 71.7655 32.4302L52.4658 34.6717C51.9702 34.7286 51.569 35.0972 51.4713 35.583L49.4216 45.7483C49.3475 46.1101 49.452 46.4753 49.7048 46.7467C49.9576 47.0181 50.315 47.1521 50.6824 47.1086L76.3839 44.1233C76.7548 44.0798 77.0717 43.8687 77.2537 43.547C77.4357 43.2254 77.4526 42.8468 77.2975 42.5117L72.9454 33.0903C72.7566 32.6781 72.3487 32.4235 71.9003 32.4235Z" fill="url(#paint3_linear_98_24)"/>
<path d="M47.8642 50C47.3517 50 46.8393 49.8961 46.3674 49.6884L28.1767 41.7947C27.6677 41.5736 27.3575 41.0543 27.4047 40.5048C27.4519 39.9553 27.8464 39.4963 28.3857 39.3657L31.7737 38.5381C31.9726 38.4912 32.1513 38.3907 32.2996 38.25L50.6925 20.5663C51.0701 20.2044 51.6297 20.1039 52.1118 20.3116L73.0465 29.3947C73.8893 29.7599 74.5635 30.4199 74.9478 31.2509L79.6539 41.4329C80.1596 42.5251 80.109 43.7548 79.5157 44.8034C78.9224 45.8521 77.8908 46.5356 76.6907 46.673L48.3024 49.9732C48.1574 49.9899 48.0125 49.9967 47.8675 49.9967L47.8642 50ZM32.6974 40.9538L47.4023 47.333C47.5877 47.4135 47.7934 47.4436 47.9956 47.4202L76.3839 44.1233C76.7548 44.0798 77.0717 43.8687 77.2537 43.547C77.4357 43.2254 77.4526 42.8468 77.2975 42.5117L72.5914 32.3297C72.4734 32.0751 72.2644 31.8707 72.0082 31.7601L51.8691 23.0221L34.0998 40.1061C33.702 40.4881 33.2199 40.7795 32.6974 40.9538Z" fill="url(#paint4_linear_98_24)"/>
<path d="M45.7505 34.2227C45.5785 34.2227 45.4032 34.1892 45.2347 34.1155L41.0814 32.313C40.4274 32.0282 40.1274 31.271 40.4139 30.6176C40.7005 29.9643 41.4624 29.6694 42.1197 29.9542L46.273 31.7568C46.927 32.0416 47.227 32.7988 46.9405 33.4521C46.7281 33.9346 46.2528 34.2261 45.7538 34.2261L45.7505 34.2227Z" fill="url(#paint5_linear_98_24)"/>
<defs>
<linearGradient id="paint0_linear_98_24" x1="0" y1="0" x2="80.4956" y2="50.4515" gradientUnits="userSpaceOnUse">
<stop stop-color="#FFC773"/>
<stop offset="1" stop-color="#B38A5E"/>
</linearGradient>
<linearGradient id="paint1_linear_98_24" x1="0" y1="0" x2="80.4956" y2="50.4515" gradientUnits="userSpaceOnUse">
<stop stop-color="#FFC773"/>
<stop offset="1" stop-color="#B38A5E"/>
</linearGradient>
<linearGradient id="paint2_linear_98_24" x1="0" y1="0" x2="80.4956" y2="50.4515" gradientUnits="userSpaceOnUse">
<stop stop-color="#FFC773"/>
<stop offset="1" stop-color="#B38A5E"/>
</linearGradient>
<linearGradient id="paint3_linear_98_24" x1="0" y1="0" x2="80.4956" y2="50.4515" gradientUnits="userSpaceOnUse">
<stop stop-color="#FFC773"/>
<stop offset="1" stop-color="#B38A5E"/>
</linearGradient>
<linearGradient id="paint4_linear_98_24" x1="0" y1="0" x2="80.4956" y2="50.4515" gradientUnits="userSpaceOnUse">
<stop stop-color="#FFC773"/>
<stop offset="1" stop-color="#B38A5E"/>
</linearGradient>
<linearGradient id="paint5_linear_98_24" x1="0" y1="0" x2="80.4956" y2="50.4515" gradientUnits="userSpaceOnUse">
<stop stop-color="#FFC773"/>
<stop offset="1" stop-color="#B38A5E"/>
</linearGradient>
</defs>
</svg>
