<svg width="32" height="33" viewBox="0 0 32 33" fill="none" xmlns="http://www.w3.org/2000/svg">
<path d="M18.6667 18.1081C19.1971 18.1081 19.7058 17.8974 20.0809 17.5223C20.456 17.1472 20.6667 16.6385 20.6667 16.1081C20.6667 15.5776 20.456 15.0689 20.0809 14.6939C19.7058 14.3188 19.1971 14.1081 18.6667 14.1081C18.1363 14.1081 17.6275 14.3188 17.2525 14.6939C16.8774 15.0689 16.6667 15.5776 16.6667 16.1081C16.6667 16.6385 16.8774 17.1472 17.2525 17.5223C17.6275 17.8974 18.1363 18.1081 18.6667 18.1081ZM2.66669 10.4414C2.66669 9.11532 3.19347 7.84355 4.13115 6.90587C5.06884 5.96819 6.3406 5.44141 7.66669 5.44141H24.3334C25.6594 5.44141 26.9312 5.96819 27.8689 6.90587C28.8066 7.84355 29.3334 9.11532 29.3334 10.4414V21.7747C29.3334 23.1008 28.8066 24.3726 27.8689 25.3103C26.9312 26.248 25.6594 26.7747 24.3334 26.7747H7.66669C6.3406 26.7747 5.06884 26.248 4.13115 25.3103C3.19347 24.3726 2.66669 23.1008 2.66669 21.7747V10.4414ZM7.66669 9.44141C7.40147 9.44141 7.14712 9.54676 6.95958 9.7343C6.77204 9.92184 6.66669 10.1762 6.66669 10.4414V21.7747C6.66669 22.04 6.77204 22.2943 6.95958 22.4818C7.14712 22.6694 7.40147 22.7747 7.66669 22.7747C7.9319 22.7747 8.18626 22.6694 8.37379 22.4818C8.56133 22.2943 8.66669 22.04 8.66669 21.7747V10.4414C8.66669 10.1762 8.56133 9.92184 8.37379 9.7343C8.18626 9.54676 7.9319 9.44141 7.66669 9.44141ZM15.04 11.0681C14.9485 10.9698 14.8381 10.891 14.7154 10.8364C14.5927 10.7817 14.4603 10.7523 14.326 10.75C14.1918 10.7476 14.0584 10.7723 13.9339 10.8226C13.8094 10.8729 13.6963 10.9477 13.6013 11.0427C13.5063 11.1376 13.4315 11.2508 13.3812 11.3753C13.3309 11.4998 13.3062 11.6332 13.3086 11.7674C13.3109 11.9017 13.3403 12.0341 13.395 12.1568C13.4496 12.2795 13.5284 12.3899 13.6267 12.4814L15.22 14.0761C14.8574 14.6918 14.6663 15.3935 14.6667 16.1081C14.6667 16.8494 14.868 17.5441 15.22 18.1401L13.6267 19.7347C13.5284 19.8263 13.4496 19.9367 13.395 20.0594C13.3403 20.182 13.3109 20.3144 13.3086 20.4487C13.3062 20.583 13.3309 20.7164 13.3812 20.8409C13.4315 20.9654 13.5063 21.0785 13.6013 21.1735C13.6963 21.2684 13.8094 21.3433 13.9339 21.3936C14.0584 21.4439 14.1918 21.4686 14.326 21.4662C14.4603 21.4638 14.5927 21.4344 14.7154 21.3798C14.8381 21.3251 14.9485 21.2463 15.04 21.1481L16.6347 19.5547C17.2307 19.9067 17.9254 20.1081 18.6667 20.1081C19.408 20.1081 20.1027 19.9067 20.6987 19.5547L22.2934 21.1481C22.3849 21.2463 22.4953 21.3251 22.618 21.3798C22.7406 21.4344 22.8731 21.4638 23.0073 21.4662C23.1416 21.4686 23.275 21.4439 23.3995 21.3936C23.524 21.3433 23.6371 21.2684 23.7321 21.1735C23.827 21.0785 23.9019 20.9654 23.9522 20.8409C24.0025 20.7164 24.0272 20.583 24.0248 20.4487C24.0224 20.3144 23.9931 20.182 23.9384 20.0594C23.8837 19.9367 23.8049 19.8263 23.7067 19.7347L22.1134 18.1401C22.4654 17.5441 22.6667 16.8494 22.6667 16.1081C22.6667 15.3667 22.4654 14.6721 22.1134 14.0761L23.7067 12.4814C23.8833 12.2918 23.9795 12.0411 23.9749 11.782C23.9704 11.523 23.8654 11.2758 23.6822 11.0926C23.499 10.9094 23.2518 10.8044 22.9927 10.7998C22.7336 10.7953 22.4829 10.8914 22.2934 11.0681L20.6987 12.6614C20.0829 12.2988 19.3813 12.1077 18.6667 12.1081C17.9254 12.1081 17.2307 12.3094 16.6347 12.6614L15.04 11.0681Z" fill="#FFD89A"/>
</svg>
